<?xml version="1.0" encoding="utf-8"?>
<!-- Generator: Adobe Illustrator 23.0.4, SVG Export Plug-In . SVG Version: 6.00 Build 0)  -->
<svg version="1.1" id="dynamic-web-frame" xmlns="http://www.w3.org/2000/svg" xmlns:xlink="http://www.w3.org/1999/xlink" x="0px"
	 y="0px" viewBox="0 0 279 361.7" style="enable-background:new 0 0 279 361.7;" xml:space="preserve">
<style type="text/css">
	.frame-color{fill:#000000;}
	.background-color{fill:#ffffff;}
	.text-color{fill:#FFFFFF;}
	.icon-color{fill:#000000;opacity:1;}
	.icon-black{fill:#000000;opacity:0}

	.circle-color{fill:#000000;}
	.circle-color-black{fill:#FFFFFF;}
	.circle-outline{fill:#000000;opacity:0}

	.show_on_light{opacity:0;}
	.hide_on_light{opacity:1;}
</style>

<svg xmlns="http://www.w3.org/2000/svg" xmlns:xlink="http://www.w3.org/1999/xlink" version="1.1" width="259.8" height="259.8" viewBox="0 0 2000 2000" x="9.6" y="9.6" shape-rendering="crispEdges"><defs/><rect x="0" y="0" width="2000" height="2000" fill="#ffffff"/><rect x="840" y="200" width="64" height="64" fill="#000000"/><rect x="1160" y="200" width="64" height="64" fill="#000000"/><rect x="776" y="264" width="64" height="64" fill="#000000"/><rect x="1096" y="264" width="64" height="64" fill="#000000"/><rect x="712" y="328" width="64" height="64" fill="#000000"/><rect x="904" y="328" width="64" height="64" fill="#000000"/><rect x="1096" y="328" width="64" height="64" fill="#000000"/><rect x="1160" y="328" width="64" height="64" fill="#000000"/><rect x="1224" y="328" width="64" height="64" fill="#000000"/><rect x="776" y="392" width="64" height="64" fill="#000000"/><rect x="968" y="392" width="64" height="64" fill="#000000"/><rect x="1160" y="392" width="64" height="64" fill="#000000"/><rect x="1224" y="392" width="64" height="64" fill="#000000"/><rect x="776" y="456" width="64" height="64" fill="#000000"/><rect x="968" y="456" width="64" height="64" fill="#000000"/><rect x="1096" y="456" width="64" height="64" fill="#000000"/><rect x="840" y="520" width="64" height="64" fill="#000000"/><rect x="904" y="520" width="64" height="64" fill="#000000"/><rect x="968" y="520" width="64" height="64" fill="#000000"/><rect x="1096" y="520" width="64" height="64" fill="#000000"/><rect x="1160" y="520" width="64" height="64" fill="#000000"/><rect x="712" y="584" width="64" height="64" fill="#000000"/><rect x="840" y="584" width="64" height="64" fill="#000000"/><rect x="968" y="584" width="64" height="64" fill="#000000"/><rect x="1096" y="584" width="64" height="64" fill="#000000"/><rect x="1224" y="584" width="64" height="64" fill="#000000"/><rect x="712" y="648" width="64" height="64" fill="#000000"/><rect x="904" y="648" width="64" height="64" fill="#000000"/><rect x="1032" y="648" width="64" height="64" fill="#000000"/><rect x="1224" y="648" width="64" height="64" fill="#000000"/><rect x="200" y="712" width="64" height="64" fill="#000000"/><rect x="264" y="712" width="64" height="64" fill="#000000"/><rect x="328" y="712" width="64" height="64" fill="#000000"/><rect x="456" y="712" width="64" height="64" fill="#000000"/><rect x="520" y="712" width="64" height="64" fill="#000000"/><rect x="584" y="712" width="64" height="64" fill="#000000"/><rect x="648" y="712" width="64" height="64" fill="#000000"/><rect x="712" y="712" width="64" height="64" fill="#000000"/><rect x="968" y="712" width="64" height="64" fill="#000000"/><rect x="1032" y="712" width="64" height="64" fill="#000000"/><rect x="1224" y="712" width="64" height="64" fill="#000000"/><rect x="1288" y="712" width="64" height="64" fill="#000000"/><rect x="1352" y="712" width="64" height="64" fill="#000000"/><rect x="1608" y="712" width="64" height="64" fill="#000000"/><rect x="392" y="776" width="64" height="64" fill="#000000"/><rect x="456" y="776" width="64" height="64" fill="#000000"/><rect x="520" y="776" width="64" height="64" fill="#000000"/><rect x="712" y="776" width="64" height="64" fill="#000000"/><rect x="776" y="776" width="64" height="64" fill="#000000"/><rect x="904" y="776" width="64" height="64" fill="#000000"/><rect x="968" y="776" width="64" height="64" fill="#000000"/><rect x="1032" y="776" width="64" height="64" fill="#000000"/><rect x="1096" y="776" width="64" height="64" fill="#000000"/><rect x="1160" y="776" width="64" height="64" fill="#000000"/><rect x="1224" y="776" width="64" height="64" fill="#000000"/><rect x="1352" y="776" width="64" height="64" fill="#000000"/><rect x="1480" y="776" width="64" height="64" fill="#000000"/><rect x="1672" y="776" width="64" height="64" fill="#000000"/><rect x="264" y="840" width="64" height="64" fill="#000000"/><rect x="456" y="840" width="64" height="64" fill="#000000"/><rect x="584" y="840" width="64" height="64" fill="#000000"/><rect x="648" y="840" width="64" height="64" fill="#000000"/><rect x="712" y="840" width="64" height="64" fill="#000000"/><rect x="840" y="840" width="64" height="64" fill="#000000"/><rect x="904" y="840" width="64" height="64" fill="#000000"/><rect x="968" y="840" width="64" height="64" fill="#000000"/><rect x="1032" y="840" width="64" height="64" fill="#000000"/><rect x="1224" y="840" width="64" height="64" fill="#000000"/><rect x="1288" y="840" width="64" height="64" fill="#000000"/><rect x="1352" y="840" width="64" height="64" fill="#000000"/><rect x="1544" y="840" width="64" height="64" fill="#000000"/><rect x="200" y="904" width="64" height="64" fill="#000000"/><rect x="264" y="904" width="64" height="64" fill="#000000"/><rect x="328" y="904" width="64" height="64" fill="#000000"/><rect x="776" y="904" width="64" height="64" fill="#000000"/><rect x="840" y="904" width="64" height="64" fill="#000000"/><rect x="968" y="904" width="64" height="64" fill="#000000"/><rect x="1032" y="904" width="64" height="64" fill="#000000"/><rect x="1224" y="904" width="64" height="64" fill="#000000"/><rect x="1352" y="904" width="64" height="64" fill="#000000"/><rect x="1416" y="904" width="64" height="64" fill="#000000"/><rect x="1672" y="904" width="64" height="64" fill="#000000"/><rect x="1736" y="904" width="64" height="64" fill="#000000"/><rect x="200" y="968" width="64" height="64" fill="#000000"/><rect x="264" y="968" width="64" height="64" fill="#000000"/><rect x="328" y="968" width="64" height="64" fill="#000000"/><rect x="456" y="968" width="64" height="64" fill="#000000"/><rect x="584" y="968" width="64" height="64" fill="#000000"/><rect x="648" y="968" width="64" height="64" fill="#000000"/><rect x="712" y="968" width="64" height="64" fill="#000000"/><rect x="840" y="968" width="64" height="64" fill="#000000"/><rect x="904" y="968" width="64" height="64" fill="#000000"/><rect x="1032" y="968" width="64" height="64" fill="#000000"/><rect x="1096" y="968" width="64" height="64" fill="#000000"/><rect x="1224" y="968" width="64" height="64" fill="#000000"/><rect x="1352" y="968" width="64" height="64" fill="#000000"/><rect x="1416" y="968" width="64" height="64" fill="#000000"/><rect x="1608" y="968" width="64" height="64" fill="#000000"/><rect x="1672" y="968" width="64" height="64" fill="#000000"/><rect x="1736" y="968" width="64" height="64" fill="#000000"/><rect x="328" y="1032" width="64" height="64" fill="#000000"/><rect x="520" y="1032" width="64" height="64" fill="#000000"/><rect x="648" y="1032" width="64" height="64" fill="#000000"/><rect x="712" y="1032" width="64" height="64" fill="#000000"/><rect x="840" y="1032" width="64" height="64" fill="#000000"/><rect x="904" y="1032" width="64" height="64" fill="#000000"/><rect x="1032" y="1032" width="64" height="64" fill="#000000"/><rect x="1224" y="1032" width="64" height="64" fill="#000000"/><rect x="1480" y="1032" width="64" height="64" fill="#000000"/><rect x="1672" y="1032" width="64" height="64" fill="#000000"/><rect x="1736" y="1032" width="64" height="64" fill="#000000"/><rect x="200" y="1096" width="64" height="64" fill="#000000"/><rect x="328" y="1096" width="64" height="64" fill="#000000"/><rect x="584" y="1096" width="64" height="64" fill="#000000"/><rect x="840" y="1096" width="64" height="64" fill="#000000"/><rect x="1032" y="1096" width="64" height="64" fill="#000000"/><rect x="1160" y="1096" width="64" height="64" fill="#000000"/><rect x="1224" y="1096" width="64" height="64" fill="#000000"/><rect x="1288" y="1096" width="64" height="64" fill="#000000"/><rect x="1352" y="1096" width="64" height="64" fill="#000000"/><rect x="1544" y="1096" width="64" height="64" fill="#000000"/><rect x="1672" y="1096" width="64" height="64" fill="#000000"/><rect x="1736" y="1096" width="64" height="64" fill="#000000"/><rect x="264" y="1160" width="64" height="64" fill="#000000"/><rect x="776" y="1160" width="64" height="64" fill="#000000"/><rect x="904" y="1160" width="64" height="64" fill="#000000"/><rect x="1032" y="1160" width="64" height="64" fill="#000000"/><rect x="1352" y="1160" width="64" height="64" fill="#000000"/><rect x="1416" y="1160" width="64" height="64" fill="#000000"/><rect x="200" y="1224" width="64" height="64" fill="#000000"/><rect x="392" y="1224" width="64" height="64" fill="#000000"/><rect x="456" y="1224" width="64" height="64" fill="#000000"/><rect x="520" y="1224" width="64" height="64" fill="#000000"/><rect x="584" y="1224" width="64" height="64" fill="#000000"/><rect x="840" y="1224" width="64" height="64" fill="#000000"/><rect x="968" y="1224" width="64" height="64" fill="#000000"/><rect x="1032" y="1224" width="64" height="64" fill="#000000"/><rect x="1224" y="1224" width="64" height="64" fill="#000000"/><rect x="1288" y="1224" width="64" height="64" fill="#000000"/><rect x="1352" y="1224" width="64" height="64" fill="#000000"/><rect x="1416" y="1224" width="64" height="64" fill="#000000"/><rect x="1480" y="1224" width="64" height="64" fill="#000000"/><rect x="1608" y="1224" width="64" height="64" fill="#000000"/><rect x="1736" y="1224" width="64" height="64" fill="#000000"/><rect x="712" y="1288" width="64" height="64" fill="#000000"/><rect x="776" y="1288" width="64" height="64" fill="#000000"/><rect x="904" y="1288" width="64" height="64" fill="#000000"/><rect x="968" y="1288" width="64" height="64" fill="#000000"/><rect x="1032" y="1288" width="64" height="64" fill="#000000"/><rect x="1224" y="1288" width="64" height="64" fill="#000000"/><rect x="1480" y="1288" width="64" height="64" fill="#000000"/><rect x="1672" y="1288" width="64" height="64" fill="#000000"/><rect x="712" y="1352" width="64" height="64" fill="#000000"/><rect x="840" y="1352" width="64" height="64" fill="#000000"/><rect x="904" y="1352" width="64" height="64" fill="#000000"/><rect x="968" y="1352" width="64" height="64" fill="#000000"/><rect x="1032" y="1352" width="64" height="64" fill="#000000"/><rect x="1160" y="1352" width="64" height="64" fill="#000000"/><rect x="1224" y="1352" width="64" height="64" fill="#000000"/><rect x="1352" y="1352" width="64" height="64" fill="#000000"/><rect x="1480" y="1352" width="64" height="64" fill="#000000"/><rect x="1544" y="1352" width="64" height="64" fill="#000000"/><rect x="1672" y="1352" width="64" height="64" fill="#000000"/><rect x="1736" y="1352" width="64" height="64" fill="#000000"/><rect x="712" y="1416" width="64" height="64" fill="#000000"/><rect x="776" y="1416" width="64" height="64" fill="#000000"/><rect x="968" y="1416" width="64" height="64" fill="#000000"/><rect x="1096" y="1416" width="64" height="64" fill="#000000"/><rect x="1224" y="1416" width="64" height="64" fill="#000000"/><rect x="1480" y="1416" width="64" height="64" fill="#000000"/><rect x="1544" y="1416" width="64" height="64" fill="#000000"/><rect x="1672" y="1416" width="64" height="64" fill="#000000"/><rect x="1736" y="1416" width="64" height="64" fill="#000000"/><rect x="712" y="1480" width="64" height="64" fill="#000000"/><rect x="840" y="1480" width="64" height="64" fill="#000000"/><rect x="904" y="1480" width="64" height="64" fill="#000000"/><rect x="968" y="1480" width="64" height="64" fill="#000000"/><rect x="1096" y="1480" width="64" height="64" fill="#000000"/><rect x="1160" y="1480" width="64" height="64" fill="#000000"/><rect x="1224" y="1480" width="64" height="64" fill="#000000"/><rect x="1288" y="1480" width="64" height="64" fill="#000000"/><rect x="1352" y="1480" width="64" height="64" fill="#000000"/><rect x="1416" y="1480" width="64" height="64" fill="#000000"/><rect x="1480" y="1480" width="64" height="64" fill="#000000"/><rect x="1608" y="1480" width="64" height="64" fill="#000000"/><rect x="840" y="1544" width="64" height="64" fill="#000000"/><rect x="904" y="1544" width="64" height="64" fill="#000000"/><rect x="1032" y="1544" width="64" height="64" fill="#000000"/><rect x="1096" y="1544" width="64" height="64" fill="#000000"/><rect x="1160" y="1544" width="64" height="64" fill="#000000"/><rect x="1224" y="1544" width="64" height="64" fill="#000000"/><rect x="1288" y="1544" width="64" height="64" fill="#000000"/><rect x="1416" y="1544" width="64" height="64" fill="#000000"/><rect x="1480" y="1544" width="64" height="64" fill="#000000"/><rect x="712" y="1608" width="64" height="64" fill="#000000"/><rect x="776" y="1608" width="64" height="64" fill="#000000"/><rect x="968" y="1608" width="64" height="64" fill="#000000"/><rect x="1032" y="1608" width="64" height="64" fill="#000000"/><rect x="1160" y="1608" width="64" height="64" fill="#000000"/><rect x="1224" y="1608" width="64" height="64" fill="#000000"/><rect x="1544" y="1608" width="64" height="64" fill="#000000"/><rect x="1736" y="1608" width="64" height="64" fill="#000000"/><rect x="712" y="1672" width="64" height="64" fill="#000000"/><rect x="776" y="1672" width="64" height="64" fill="#000000"/><rect x="904" y="1672" width="64" height="64" fill="#000000"/><rect x="1096" y="1672" width="64" height="64" fill="#000000"/><rect x="1224" y="1672" width="64" height="64" fill="#000000"/><rect x="1480" y="1672" width="64" height="64" fill="#000000"/><rect x="1544" y="1672" width="64" height="64" fill="#000000"/><rect x="1736" y="1672" width="64" height="64" fill="#000000"/><rect x="712" y="1736" width="64" height="64" fill="#000000"/><rect x="776" y="1736" width="64" height="64" fill="#000000"/><rect x="840" y="1736" width="64" height="64" fill="#000000"/><rect x="968" y="1736" width="64" height="64" fill="#000000"/><rect x="1032" y="1736" width="64" height="64" fill="#000000"/><rect x="1096" y="1736" width="64" height="64" fill="#000000"/><rect x="1224" y="1736" width="64" height="64" fill="#000000"/><rect x="1480" y="1736" width="64" height="64" fill="#000000"/><rect x="1544" y="1736" width="64" height="64" fill="#000000"/><rect x="1672" y="1736" width="64" height="64" fill="#000000"/><rect x="1736" y="1736" width="64" height="64" fill="#000000"/><svg version="1.1" id="Ebene_1" x="200" y="200" viewBox="0 0 700 700" style="enable-background:new 0 0 700 700;" xml:space="preserve" width="448" height="448" shape-rendering="auto">

<path fill="#000000" d="M21.2-0.1C9.5-0.1-0.1,9.5-0.1,21.2v78.8v100v100v100v100v100v78.8c0,11.7,9.5,21.3,21.3,21.3h657.6  c11.7,0,21.3-9.5,21.3-21.3V600V500V400V300V200v-100V21.2c0-11.7-9.5-21.3-21.3-21.3H21.2z M600,200v100v100v100v87.8  c0,6.8-5.5,12.2-12.2,12.2H112.2c-6.8,0-12.2-5.5-12.2-12.2V500V400V300V200v-87.8c0-6.8,5.5-12.2,12.2-12.2h475.6  c6.8,0,12.2,5.5,12.2,12.2V200z"/>
</svg>
<svg version="1.1" id="Ebene_1" x="200" y="200" viewBox="0 0 700 700" style="enable-background:new 0 0 700 700;" xml:space="preserve" width="448" height="448" shape-rendering="auto">

<path fill="#000000" d="M500,400V300v-78.8c0-11.7-9.5-21.3-21.3-21.3H221.2c-11.7,0-21.3,9.5-21.3,21.3V300v100v78.8    c0,11.7,9.5,21.3,21.3,21.3h257.5c11.7,0,21.3-9.5,21.3-21.3V400z"/>
</svg>
<svg version="1.1" id="Ebene_1" x="1352" y="200" viewBox="0 0 700 700" style="enable-background:new 0 0 700 700;" xml:space="preserve" width="448" height="448" shape-rendering="auto">

<path fill="#000000" d="M21.2-0.1C9.5-0.1-0.1,9.5-0.1,21.2v78.8v100v100v100v100v100v78.8c0,11.7,9.5,21.3,21.3,21.3h657.6  c11.7,0,21.3-9.5,21.3-21.3V600V500V400V300V200v-100V21.2c0-11.7-9.5-21.3-21.3-21.3H21.2z M600,200v100v100v100v87.8  c0,6.8-5.5,12.2-12.2,12.2H112.2c-6.8,0-12.2-5.5-12.2-12.2V500V400V300V200v-87.8c0-6.8,5.5-12.2,12.2-12.2h475.6  c6.8,0,12.2,5.5,12.2,12.2V200z"/>
</svg>
<svg version="1.1" id="Ebene_1" x="1352" y="200" viewBox="0 0 700 700" style="enable-background:new 0 0 700 700;" xml:space="preserve" width="448" height="448" shape-rendering="auto">

<path fill="#000000" d="M500,400V300v-78.8c0-11.7-9.5-21.3-21.3-21.3H221.2c-11.7,0-21.3,9.5-21.3,21.3V300v100v78.8    c0,11.7,9.5,21.3,21.3,21.3h257.5c11.7,0,21.3-9.5,21.3-21.3V400z"/>
</svg>
<svg version="1.1" id="Ebene_1" x="200" y="1352" viewBox="0 0 700 700" style="enable-background:new 0 0 700 700;" xml:space="preserve" width="448" height="448" shape-rendering="auto">

<path fill="#000000" d="M21.2-0.1C9.5-0.1-0.1,9.5-0.1,21.2v78.8v100v100v100v100v100v78.8c0,11.7,9.5,21.3,21.3,21.3h657.6  c11.7,0,21.3-9.5,21.3-21.3V600V500V400V300V200v-100V21.2c0-11.7-9.5-21.3-21.3-21.3H21.2z M600,200v100v100v100v87.8  c0,6.8-5.5,12.2-12.2,12.2H112.2c-6.8,0-12.2-5.5-12.2-12.2V500V400V300V200v-87.8c0-6.8,5.5-12.2,12.2-12.2h475.6  c6.8,0,12.2,5.5,12.2,12.2V200z"/>
</svg>
<svg version="1.1" id="Ebene_1" x="200" y="1352" viewBox="0 0 700 700" style="enable-background:new 0 0 700 700;" xml:space="preserve" width="448" height="448" shape-rendering="auto">

<path fill="#000000" d="M500,400V300v-78.8c0-11.7-9.5-21.3-21.3-21.3H221.2c-11.7,0-21.3,9.5-21.3,21.3V300v100v78.8    c0,11.7,9.5,21.3,21.3,21.3h257.5c11.7,0,21.3-9.5,21.3-21.3V400z"/>
</svg>
</svg>

<path id="FrameBody" class="frame-color" d="M243.1,289.8H35.9c-19.8,0-35.9,16.1-35.9,36l0,0c0,19.8,16.1,35.9,35.9,35.9H243
	c19.8,0,35.9-16.1,35.9-35.9l0,0C279,305.9,262.9,289.8,243.1,289.8L243.1,289.8z M265.3,0H13.7C6.1,0,0,6.1,0,13.7v251.7
	c0,7.5,6.1,13.7,13.7,13.7h251.7c7.5,0,13.7-6.1,13.7-13.7V13.7C279,6.1,272.9,0,265.3,0z M268.5,261.1c0,4.1-3.3,7.4-7.4,7.4H17.9
	c-4.1,0-7.4-3.3-7.4-7.4V17.9c0-4.1,3.3-7.4,7.4-7.4h243.2c4.1,0,7.4,3.3,7.4,7.4V261.1z"/>
<path id="IconCircle" class="circle-color show_on_light" d="M35.9,297.2c-15.8,0-28.5,12.7-28.5,28.5s12.7,28.5,28.5,28.5s28.5-12.7,28.5-28.5
	C64.4,310,51.7,297.2,35.9,297.2z"/>
<path id="IconCircle" class="circle-color-black hide_on_light" d="M35.9,297.2c-15.8,0-28.5,12.7-28.5,28.5s12.7,28.5,28.5,28.5s28.5-12.7,28.5-28.5
	C64.4,310,51.7,297.2,35.9,297.2z"/>
<path id="IconCircleOutline" class="circle-outline show_on_light" d="M35.9,299.2c14.6,0,26.5,11.9,26.5,26.5s-11.9,26.5-26.5,26.5S9.4,340.3,9.4,325.7
	S21.3,299.2,35.9,299.2 M35.9,297.2c-15.8,0-28.5,12.7-28.5,28.5s12.7,28.5,28.5,28.5s28.5-12.7,28.5-28.5
	C64.4,310,51.7,297.2,35.9,297.2L35.9,297.2z"/>
<path id="PhoneIcon" class="icon-color hide_on_light" d="M48.2,307.5v13v2v21c0,2.3-1.9,4.1-4.1,4.1H26.4c-2.3,0-4.1-1.9-4.1-4.1v-21v-2v-13c0-2.3,1.9-4.1,4.1-4.1
	h17.7C46.3,303.4,48.2,305.3,48.2,307.5z M29.9,307.7c0,1.1,0.9,1.9,1.9,1.9h6.8c1.1,0,1.9-0.9,1.9-1.9s-0.9-1.9-1.9-1.9h-6.7
	C30.8,305.8,29.9,306.6,29.9,307.7z M45.1,312.4l-19.9-0.2v26.6h19.9V312.4z M32.5,343.2c0,1.4,1.3,2.7,2.7,2.7s2.7-1.3,2.7-2.7
	s-1.3-2.7-2.7-2.7C33.8,340.4,32.5,341.7,32.5,343.2z"/>
<path id="PhoneIconBlack" class="icon-black show_on_light" d="M48.2,307.5v13v2v21c0,2.3-1.9,4.1-4.1,4.1H26.4c-2.3,0-4.1-1.9-4.1-4.1v-21v-2v-13
	c0-2.3,1.9-4.1,4.1-4.1h17.7C46.3,303.4,48.2,305.3,48.2,307.5z M29.9,307.7c0,1.1,0.9,1.9,1.9,1.9h6.8c1.1,0,1.9-0.9,1.9-1.9
	s-0.9-1.9-1.9-1.9h-6.7C30.8,305.8,29.9,306.6,29.9,307.7z M45.1,312.4l-19.9-0.2v26.6h19.9V312.4z M32.5,343.2
	c0,1.4,1.3,2.7,2.7,2.7s2.7-1.3,2.7-2.7s-1.3-2.7-2.7-2.7C33.8,340.4,32.5,341.7,32.5,343.2z"/>
	<svg id="TextArea" x="70" y="295" width="180" height="62" viewBox="0 0 51.9599609375 17.588541666667" preserveAspectRatio="xMidYMid meet">
<svg version="1.1" xmlns="http://www.w3.org/2000/svg"><path class="text-color" fill="#ffffff" d=" M8.72265625,13.19140625l-5.4462890625,0l0-0.74658203125l4.1357421875-6.22509765625l-4.0068359375,0l0-0.880859375l5.20458984375,0l0,0.74658203125l-4.1357421875,6.22509765625l4.24853515625,0l0,0.880859375z M12.58984375,13.298828125q-1.32666015625,0-2.081298828125-0.802978515625t-0.754638671875-2.210205078125q0-1.41796875,0.70361328125-2.258544921875t1.9013671875-0.840576171875q1.11181640625,0,1.7724609375,0.717041015625t0.66064453125,1.941650390625l0,0.58544921875l-4.0390625,0q0.02685546875,1.00439453125,0.51025390625,1.525390625t1.36962890625,0.52099609375q0.47265625,0,0.89697265625-0.083251953125t0.99365234375-0.324951171875l0,0.8486328125q-0.48876953125,0.20947265625-0.91845703125,0.29541015625t-1.01513671875,0.0859375z M12.34814453125,7.97607421875q-0.69287109375,0-1.095703125,0.44580078125t-0.47802734375,1.24072265625l3.00244140625,0q-0.0107421875-0.8271484375-0.38134765625-1.2568359375t-1.04736328125-0.4296875z M20.12548828125,11.56396484375q0,0.8271484375-0.61767578125,1.281005859375t-1.73486328125,0.453857421875q-1.16552734375,0-1.85302734375-0.37060546875l0-0.880859375q0.97216796875,0.47265625,1.87451171875,0.47265625q0.73046875,0,1.0634765625-0.236328125t0.3330078125-0.6337890625q0-0.34912109375-0.319580078125-0.5908203125t-1.135986328125-0.55322265625q-0.83251953125-0.322265625-1.1708984375-0.550537109375t-0.496826171875-0.512939453125t-0.158447265625-0.69287109375q0-0.72509765625,0.5908203125-1.14404296875t1.6220703125-0.4189453125q1.00439453125,0,1.8798828125,0.3974609375l-0.32763671875,0.76806640625q-0.89697265625-0.3759765625-1.61669921875-0.3759765625q-0.6015625,0-0.9130859375,0.190673828125t-0.3115234375,0.523681640625q0,0.322265625,0.2685546875,0.534423828125t1.25146484375,0.588134765625q0.73583984375,0.27392578125,1.087646484375,0.51025390625t0.518310546875,0.53173828125t0.16650390625,0.708984375z M22.51025390625,10.15673828125l0.32763671875-0.4189453125l0.3759765625-0.451171875l1.88525390625-1.99267578125l1.1279296875,0l-2.384765625,2.51904296875l2.55126953125,3.37841796875l-1.16552734375,0l-2.04638671875-2.75l-0.67138671875,0.58544921875l0,2.16455078125l-0.9560546875,0l0-8.357421875l0.9560546875,0l0,4.36669921875l-0.04296875,0.9560546875l0.04296875,0z M31.07177734375,13.19140625l-0.18798828125-0.837890625l-0.04296875,0q-0.4404296875,0.55322265625-0.878173828125,0.749267578125t-1.103759765625,0.196044921875q-0.8701171875,0-1.3642578125-0.45654296875t-0.494140625-1.2890625q0-1.7939453125,2.83056640625-1.8798828125l0.9990234375-0.03759765625l0-0.34912109375q0-0.67138671875-0.2900390625-0.990966796875t-0.92919921875-0.319580078125q-0.46728515625,0-0.883544921875,0.1396484375t-0.781494140625,0.3115234375l-0.29541015625-0.72509765625q0.44580078125-0.236328125,0.97216796875-0.37060546875t1.0419921875-0.13427734375q1.06884765625,0,1.58984375,0.47265625t0.52099609375,1.50390625l0,4.017578125l-0.70361328125,0z M29.0791015625,12.52001953125q0.81103515625,0,1.275634765625-0.437744140625t0.464599609375-1.243408203125l0-0.53173828125l-0.8701171875,0.03759765625q-1.01513671875,0.03759765625-1.479736328125,0.322265625t-0.464599609375,0.89697265625q0,0.4619140625,0.281982421875,0.708984375t0.792236328125,0.2470703125z M37.619140625,13.19140625l0-3.7705078125q0-0.7197265625-0.319580078125-1.071533203125t-1.001708984375-0.351806640625q-0.90771484375,0-1.318603515625,0.502197265625t-0.410888671875,1.635498046875l0,3.05615234375l-0.966796875,0l0-5.8974609375l0.77880859375,0l0.14501953125,0.8056640625l0.0537109375,0q0.27392578125-0.43505859375,0.76806640625-0.674072265625t1.09033203125-0.239013671875q1.0849609375,0,1.611328125,0.5263671875t0.5263671875,1.63818359375l0,3.84033203125l-0.9560546875,0z M41.314453125,7.2939453125l0,3.79736328125q0,0.71435546875,0.319580078125,1.060791015625t0.990966796875,0.346435546875q0.90771484375,0,1.3212890625-0.5048828125t0.41357421875-1.62744140625l0-3.072265625l0.97216796875,0l0,5.8974609375l-0.794921875,0l-0.1396484375-0.77880859375l-0.04833984375,0q-0.26318359375,0.42431640625-0.74658203125,0.6552734375t-1.12255859375,0.23095703125q-1.0634765625,0-1.603271484375-0.51025390625t-0.539794921875-1.6328125l0-3.86181640625l0.9775390625,0z M46.50830078125,15.833984375q-0.5048828125,0-0.8486328125-0.13427734375l0-0.77880859375q0.37060546875,0.107421875,0.73046875,0.107421875q0.4189453125,0,0.614990234375-0.228271484375t0.196044921875-0.695556640625l0-6.810546875l0.966796875,0l0,6.7783203125q0,0.880859375-0.421630859375,1.3212890625t-1.238037109375,0.4404296875z M47.1259765625,5.69873046875q0-0.322265625,0.163818359375-0.46728515625t0.405517578125-0.14501953125q0.2255859375,0,0.394775390625,0.14501953125t0.169189453125,0.46728515625q0,0.31689453125-0.169189453125,0.46728515625t-0.394775390625,0.150390625q-0.24169921875,0-0.405517578125-0.150390625t-0.163818359375-0.46728515625z "/></svg>
</svg>

</svg>
